<svg version="1.2" xmlns="http://www.w3.org/2000/svg" viewBox="0 0 250 100" width="250" height="100"><style>.a{fill:#fff}</style><path class="a" d="m22.6 58.8q0 3.5-3 5.7-3.1 2.2-7 2.2-3.9 0-6.2-1.7-2.2-1.6-2.2-2.9 0-0.8 1.9-2.5 1.9-1.7 3.2-2.1 2.8 2 4.5 6.4 2.1-0.2 2.1-1.9 0-2.5-4.5-7.2-4.4-4.6-4.4-7.4 0-2.7 2.4-4.2 2.5-1.6 6-1.6 3.5 0 5.3 1.3 1.7 1.2 1.7 3.4 0 2-3.3 5.8 0.4 0.4 1 1 0.6 0.6 1.6 2.4 0.9 1.8 0.9 3.3zm-5.2-8.6q2.3-2 2.3-3.9 0-2-2.7-2-1.2 0-2.1 0.6-0.8 0.5-0.8 1.1 0 1.2 2.4 3.4zm24.2-6.9q0.1-0.1 0.6-1.4 2.6 0 7 1.5-1.4 4.6-2.2 9.6-0.8 4.9-0.8 7.1 0 2.1 0.4 2.1 0.3 0 2.4-1.1l0.7-0.3 1 1.9q-0.5 0.5-1.4 1.1-0.7 0.7-2.9 1.8-2.2 1.1-4 1.1-3.4 0-4-3-3.5 3-6.3 3-2.8 0-4.8-2.2-1.9-2.2-1.9-6.9 0-7.4 3-11.6 3-4.3 7.3-4.3 3.1 0 5.9 1.6zm-6.2 18.8q1.3 0 2.9-1.1 0.4-7.7 2.6-15.3-1.6-0.7-2.8-0.7-2 0-3.4 3.9-1.4 3.8-1.4 8.5 0 4.7 2.1 4.7zm17.7 4.2h-1q0-2.6 1.5-9.9 1.6-7.4 1.6-8.4 0-1.8-1.5-3.8l-0.5-0.7v-0.7q3-0.8 9.6-0.8 0.7 1 0.7 3.4 5-3.7 7.9-3.7 3.7 0 4.3 3.8 1.5-1.2 3.9-2.5 2.4-1.3 4.3-1.3 1.9 0 3.2 1.3 1.2 1.2 1.2 3.4 0 2.2-1.2 7.3-1.2 5-1.2 6.8 0 1.7 0.5 1.7 0.3 0 2.3-1.1l0.6-0.3 1 1.9q-1.5 1.5-3.9 2.8-2.5 1.2-4.3 1.2-4.2 0-4.2-4.6 0-1.7 1.2-6.8 1.2-5.2 1.2-6.8 0-1.6-0.9-1.6-1.6 0-3.7 1.3-0.1 1.1-1.5 7.4-1.4 6.4-1.4 9.9-1.6 0.8-7.5 0.8-0.1-0.7-0.1-3 0-2.3 1.3-7.8 1.3-5.6 1.3-7.1 0-1.5-1-1.5-1.7 0-3.7 1.4-0.1 0.5-1.1 4.8-1.9 8.7-1.9 12.4-2 0.8-7 0.8zm38.7-9.7q0-6.9 4.1-10.9 4.2-4 9.5-4 3.2 0 5.3 1.6 2.1 1.6 2.1 4.3 0 2.6-1.4 4.5-1.3 1.8-3.2 2.8-3.9 1.9-7.2 2.4l-1.3 0.2q0.4 5.1 4.3 5.1 1.3 0 2.8-0.6 1.4-0.7 2.3-1.4l0.8-0.6 1.3 1.7q-0.4 0.6-1.7 1.6-1.4 1-2.5 1.7-3.2 1.7-7 1.7-3.8 0-6-2.6-2.2-2.7-2.2-7.5zm7.9-1.8q2.8-0.5 4.4-2.4 1.7-1.9 1.7-4.8 0-3-1.8-3-2.1 0-3.2 3.6-1.1 3.5-1.1 6.6zm14 1.8q0-6.9 4.2-10.9 4.1-4 9.4-4 3.3 0 5.4 1.6 2.1 1.6 2.1 4.3 0 2.6-1.4 4.5-1.3 1.8-3.3 2.8-3.9 1.9-7.1 2.4l-1.3 0.2q0.3 5.1 4.2 5.1 1.3 0 2.8-0.6 1.5-0.7 2.3-1.4l0.8-0.6 1.4 1.7q-0.5 0.6-1.8 1.6-1.3 1-2.5 1.7-3.2 1.7-7 1.7-3.8 0-6-2.6-2.2-2.7-2.2-7.5zm7.9-1.8q2.8-0.5 4.5-2.4 1.6-1.9 1.6-4.8 0-3-1.7-3-2.1 0-3.3 3.6-1.1 3.5-1.1 6.6zm15.4 11.5h-0.4q-0.1-0.5-0.1-2 0-1.6 1.5-8.5 1.5-6.9 1.5-7.9 0-1.7-1.6-3.7l-0.5-0.7 0.1-0.7q3-0.8 9.5-0.8 0.7 1.4 0.7 4 0.6-1 2.5-2.6 1.9-1.7 4-1.7 2.9 0 2.9 5.2-0.2 0.3-0.7 0.9-0.5 0.5-1.9 1.4-1.4 0.9-2.7 1.2-0.1 0-0.9-1.5-0.9-1.5-1.4-1.5-1.3 0.5-2.4 1.6-2.5 11.4-2.5 14.8 0 1.2 0.1 1.7-2 0.8-7.7 0.8zm29.5-23.9h5.2q-0.2 1.2-1 3.2-2.1-0.2-4.2-0.2h-0.2q-1.1 13.5-2.1 20-1 6.5-2.6 9.1-2-0.1-4.1-0.5-2.1-0.5-2.9-1 1.3-4.1 2.6-12.2 1.4-8.2 1.8-15.2-1.5 0.1-3.4 0.4-0.2-0.7-0.2-1.4 0-0.8 0.3-2.2h3.5q0.1-4.8 0.5-7.3 0.6-4.4 3-6.9 2.4-2.5 6.2-2.5 2.4 0 3.8 1.1 1.4 1.1 1.4 3.4 0 2.3-2.1 6-2 3.6-5.5 6.2zm0.2-3.5q2.1-1.8 3.3-4 1.2-2.2 1.2-4 0-1.8-1.1-1.8-2.5 0-3.1 5.6-0.2 1.9-0.3 4.2zm11.9 27.8q-3.8 0-6-2.6-2.1-2.7-2.1-7.5 0-6.1 3.2-10.5 3.3-4.4 9.1-4.4l2 0.1q0.9-0.5 2.1-0.5 4.3 0 4.3 8.2 2.3-0.1 4.6-0.6l0.9-0.2 0.3 2.2q-1.8 0.7-4.9 1.3l-1.1 0.2q-1 5.8-4.2 10.1-3.2 4.2-8.2 4.2zm3-4.7q2.3 0 4.1-3 1.9-2.9 2.6-6.2-5.9 0-5.9-4.4 0-1.8 0.7-3.3l0.3-0.6q-0.2-0.1-0.6-0.1-0.3 0-0.5 0.1-1.3 0.9-2.6 4.2-1.2 3.2-1.2 7.4 0 5.9 3.1 5.9zm16 4.7q-1.9 0-3.1-1.2-1.2-1.3-1.2-3.5 0-2.3 2.7-14.6 2.7-12.3 2.7-17.8l-0.3-2.4q4.3-1.5 8-1.5 0.6 0.8 0.6 2.7 0 4.4-2.8 17.1-2.8 12.6-2.8 14.6 0 2.1 0.5 2.1l3.9-1.4 0.9 1.9q-1.8 1.5-4.5 2.8-2.7 1.2-4.6 1.2zm21.8-21.6q0 2.3-1.5 8-1.5 5.6-1.5 7.4 0 1.7 0.5 1.7 0.4 0 2.6-1.1l0.6-0.3 0.9 1.9q-0.4 0.5-1.3 1.1-0.8 0.7-3.1 1.8-2.2 1.1-4.1 1.1-2 0-3.1-1.1-1.1-1.2-1.1-3.2 0-2 1.4-7.1 1.4-5.2 1.4-6.8 0-2.3-1.4-4.3l-0.5-0.7v-0.7q2.9-0.8 9.5-0.8 0.7 0.8 0.7 3.1zm-6.3-9.1q-1.1-1.1-1.1-2.9 0-1.8 1.5-3.2 1.6-1.4 3.5-1.4 2 0 3.1 1.1 1.1 1.1 1.1 2.9 0 1.8-1.6 3.2-1.5 1.3-3.4 1.3-2 0-3.1-1zm17.6 30.7q-3.8 0-6-2.6-2.1-2.7-2.1-7.5 0-6.1 3.2-10.5 3.3-4.4 9.1-4.4l2 0.1q0.9-0.5 2.1-0.5 4.3 0 4.3 8.2 2.3-0.1 4.6-0.6l0.9-0.2 0.3 2.2q-1.8 0.7-4.9 1.3l-1.1 0.2q-1 5.8-4.2 10.1-3.2 4.2-8.2 4.2zm2.9-4.7q2.4 0 4.2-3 1.8-2.9 2.6-6.2-5.9 0-5.9-4.4 0-1.8 0.7-3.3l0.3-0.6q-0.3-0.1-0.6-0.1-0.3 0-0.5 0.1-1.4 0.9-2.6 4.2-1.2 3.2-1.2 7.4 0 5.9 3 5.9z"/></svg>